<mxfile host="app.diagrams.net" modified="2023-06-25T03:14:13.722Z" agent="Mozilla/5.0 (Windows NT 10.0; Win64; x64) AppleWebKit/537.36 (KHTML, like Gecko) Chrome/114.0.0.0 Safari/537.36" etag="ACE5iaQJsSK0MeKin4Tn" version="21.5.0" type="github">
  <diagram name="Page-1" id="2YBvvXClWsGukQMizWep">
    <mxGraphModel dx="1218" dy="1854" grid="1" gridSize="10" guides="1" tooltips="1" connect="1" arrows="1" fold="1" page="1" pageScale="1" pageWidth="850" pageHeight="1100" math="0" shadow="0">
      <root>
        <mxCell id="0" />
        <mxCell id="1" parent="0" />
        <mxCell id="aM9ryv3xv72pqoxQDRHE-1" value="TAUC NetWork&amp;nbsp;&amp;nbsp;Services" style="shape=umlLifeline;perimeter=lifelinePerimeter;whiteSpace=wrap;html=1;container=0;dropTarget=0;collapsible=0;recursiveResize=0;outlineConnect=0;portConstraint=eastwest;newEdgeStyle={&quot;edgeStyle&quot;:&quot;elbowEdgeStyle&quot;,&quot;elbow&quot;:&quot;vertical&quot;,&quot;curved&quot;:0,&quot;rounded&quot;:0};fontSize=8;" parent="1" vertex="1">
          <mxGeometry x="34" y="40" width="110" height="500" as="geometry" />
        </mxCell>
        <mxCell id="-oK8NXgzQvyokhCKbwOf-55" value="" style="html=1;points=[];perimeter=orthogonalPerimeter;outlineConnect=0;targetShapes=umlLifeline;portConstraint=eastwest;newEdgeStyle={&quot;edgeStyle&quot;:&quot;elbowEdgeStyle&quot;,&quot;elbow&quot;:&quot;vertical&quot;,&quot;curved&quot;:0,&quot;rounded&quot;:0};fontSize=8;" parent="aM9ryv3xv72pqoxQDRHE-1" vertex="1">
          <mxGeometry x="50" y="453" width="10" height="27" as="geometry" />
        </mxCell>
        <mxCell id="aM9ryv3xv72pqoxQDRHE-5" value="HomeShieldSeparation" style="shape=umlLifeline;perimeter=lifelinePerimeter;whiteSpace=wrap;html=1;container=0;dropTarget=0;collapsible=0;recursiveResize=0;outlineConnect=0;portConstraint=eastwest;newEdgeStyle={&quot;edgeStyle&quot;:&quot;elbowEdgeStyle&quot;,&quot;elbow&quot;:&quot;vertical&quot;,&quot;curved&quot;:0,&quot;rounded&quot;:0};fontSize=8;" parent="1" vertex="1">
          <mxGeometry x="220" y="39" width="220" height="501" as="geometry" />
        </mxCell>
        <mxCell id="-oK8NXgzQvyokhCKbwOf-23" value="" style="html=1;points=[];perimeter=orthogonalPerimeter;outlineConnect=0;targetShapes=umlLifeline;portConstraint=eastwest;newEdgeStyle={&quot;edgeStyle&quot;:&quot;elbowEdgeStyle&quot;,&quot;elbow&quot;:&quot;vertical&quot;,&quot;curved&quot;:0,&quot;rounded&quot;:0};fontSize=8;" parent="aM9ryv3xv72pqoxQDRHE-5" vertex="1">
          <mxGeometry x="106" y="304" width="10" height="79" as="geometry" />
        </mxCell>
        <mxCell id="-oK8NXgzQvyokhCKbwOf-14" value="" style="html=1;points=[];perimeter=orthogonalPerimeter;outlineConnect=0;targetShapes=umlLifeline;portConstraint=eastwest;newEdgeStyle={&quot;edgeStyle&quot;:&quot;elbowEdgeStyle&quot;,&quot;elbow&quot;:&quot;vertical&quot;,&quot;curved&quot;:0,&quot;rounded&quot;:0};fontSize=8;" parent="aM9ryv3xv72pqoxQDRHE-5" vertex="1">
          <mxGeometry x="106" y="67" width="10" height="39" as="geometry" />
        </mxCell>
        <mxCell id="-oK8NXgzQvyokhCKbwOf-6" value="" style="html=1;verticalAlign=bottom;endArrow=block;edgeStyle=orthogonalEdgeStyle;elbow=vertical;rounded=0;fontSize=8;" parent="aM9ryv3xv72pqoxQDRHE-5" edge="1">
          <mxGeometry x="0.5289" y="20" relative="1" as="geometry">
            <mxPoint x="115" y="75" as="sourcePoint" />
            <Array as="points">
              <mxPoint x="140" y="75" />
              <mxPoint x="140" y="98" />
            </Array>
            <mxPoint x="115" y="98" as="targetPoint" />
            <mxPoint as="offset" />
          </mxGeometry>
        </mxCell>
        <mxCell id="-oK8NXgzQvyokhCKbwOf-7" value="&lt;font style=&quot;font-size: 11px;&quot;&gt;查询 Region Code Redis缓存&lt;/font&gt;" style="edgeLabel;html=1;align=center;verticalAlign=middle;resizable=0;points=[];fontSize=8;" parent="-oK8NXgzQvyokhCKbwOf-6" vertex="1" connectable="0">
          <mxGeometry x="-0.1488" y="-2" relative="1" as="geometry">
            <mxPoint x="57" y="4" as="offset" />
          </mxGeometry>
        </mxCell>
        <mxCell id="-oK8NXgzQvyokhCKbwOf-45" value="" style="endArrow=classic;html=1;rounded=0;edgeStyle=orthogonalEdgeStyle;fontSize=8;" parent="aM9ryv3xv72pqoxQDRHE-5" edge="1">
          <mxGeometry width="50" height="50" relative="1" as="geometry">
            <mxPoint x="116" y="352" as="sourcePoint" />
            <mxPoint x="116" y="372" as="targetPoint" />
            <Array as="points">
              <mxPoint x="150" y="352" />
              <mxPoint x="150" y="372" />
            </Array>
          </mxGeometry>
        </mxCell>
        <mxCell id="geQivs8DNayLq6vlZBqh-22" value="" style="html=1;points=[];perimeter=orthogonalPerimeter;outlineConnect=0;targetShapes=umlLifeline;portConstraint=eastwest;newEdgeStyle={&quot;edgeStyle&quot;:&quot;elbowEdgeStyle&quot;,&quot;elbow&quot;:&quot;vertical&quot;,&quot;curved&quot;:0,&quot;rounded&quot;:0};" parent="aM9ryv3xv72pqoxQDRHE-5" vertex="1">
          <mxGeometry x="105" y="419" width="10" height="50" as="geometry" />
        </mxCell>
        <mxCell id="geQivs8DNayLq6vlZBqh-23" value="发送具体区域的HomeShield请求" style="html=1;align=left;spacingLeft=2;endArrow=block;rounded=0;edgeStyle=orthogonalEdgeStyle;curved=0;rounded=0;" parent="aM9ryv3xv72pqoxQDRHE-5" edge="1">
          <mxGeometry x="-0.403" y="-1" relative="1" as="geometry">
            <mxPoint x="110" y="410" as="sourcePoint" />
            <Array as="points">
              <mxPoint x="140" y="410" />
              <mxPoint x="140" y="422" />
            </Array>
            <mxPoint x="115" y="422" as="targetPoint" />
            <mxPoint as="offset" />
          </mxGeometry>
        </mxCell>
        <mxCell id="aM9ryv3xv72pqoxQDRHE-8" value="" style="html=1;verticalAlign=bottom;endArrow=open;dashed=1;endSize=8;edgeStyle=elbowEdgeStyle;elbow=vertical;curved=0;rounded=0;fontSize=8;" parent="1" edge="1">
          <mxGeometry x="-0.5086" y="129" relative="1" as="geometry">
            <mxPoint x="335" y="377.0000000000001" as="targetPoint" />
            <Array as="points">
              <mxPoint x="430" y="377" />
            </Array>
            <mxPoint x="567" y="377" as="sourcePoint" />
            <mxPoint as="offset" />
          </mxGeometry>
        </mxCell>
        <mxCell id="-oK8NXgzQvyokhCKbwOf-41" value="返回HomeShield Host" style="edgeLabel;html=1;align=center;verticalAlign=middle;resizable=0;points=[];fontSize=8;" parent="aM9ryv3xv72pqoxQDRHE-8" vertex="1" connectable="0">
          <mxGeometry x="0.1385" y="2" relative="1" as="geometry">
            <mxPoint x="15" y="-3" as="offset" />
          </mxGeometry>
        </mxCell>
        <mxCell id="Dx3LyWsslC-7DG40XuAF-7" value="NBU Cloud" style="shape=umlLifeline;perimeter=lifelinePerimeter;whiteSpace=wrap;html=1;container=0;dropTarget=0;collapsible=0;recursiveResize=0;outlineConnect=0;portConstraint=eastwest;newEdgeStyle={&quot;edgeStyle&quot;:&quot;elbowEdgeStyle&quot;,&quot;elbow&quot;:&quot;vertical&quot;,&quot;curved&quot;:0,&quot;rounded&quot;:0};fontSize=8;" parent="1" vertex="1">
          <mxGeometry x="520" y="40" width="100" height="500" as="geometry" />
        </mxCell>
        <mxCell id="-oK8NXgzQvyokhCKbwOf-15" value="调用NBU Cloud Region接口" style="html=1;verticalAlign=bottom;endArrow=block;edgeStyle=elbowEdgeStyle;elbow=vertical;curved=0;rounded=0;fontSize=8;" parent="1" edge="1">
          <mxGeometry x="0.0017" relative="1" as="geometry">
            <mxPoint x="337" y="200" as="sourcePoint" />
            <Array as="points">
              <mxPoint x="391" y="200" />
            </Array>
            <mxPoint as="offset" />
            <mxPoint x="566.5" y="200" as="targetPoint" />
          </mxGeometry>
        </mxCell>
        <mxCell id="-oK8NXgzQvyokhCKbwOf-17" value="" style="edgeStyle=elbowEdgeStyle;rounded=0;orthogonalLoop=1;jettySize=auto;html=1;elbow=vertical;curved=0;dashed=1;fontSize=8;" parent="1" edge="1">
          <mxGeometry relative="1" as="geometry">
            <mxPoint x="565" y="212.71428571428567" as="sourcePoint" />
            <mxPoint x="334" y="212.99666666666673" as="targetPoint" />
            <Array as="points" />
          </mxGeometry>
        </mxCell>
        <mxCell id="-oK8NXgzQvyokhCKbwOf-27" value="RegionCode 结果返回" style="edgeLabel;html=1;align=center;verticalAlign=middle;resizable=0;points=[];fontSize=8;" parent="-oK8NXgzQvyokhCKbwOf-17" vertex="1" connectable="0">
          <mxGeometry x="-0.0395" y="1" relative="1" as="geometry">
            <mxPoint x="1" y="7" as="offset" />
          </mxGeometry>
        </mxCell>
        <mxCell id="H4ywytqqjmW8hvlybOJk-4" value="RegionCode 结果返回" style="edgeLabel;html=1;align=center;verticalAlign=middle;resizable=0;points=[];fontSize=8;" parent="-oK8NXgzQvyokhCKbwOf-17" vertex="1" connectable="0">
          <mxGeometry x="-0.0395" y="1" relative="1" as="geometry">
            <mxPoint x="1" y="7" as="offset" />
          </mxGeometry>
        </mxCell>
        <mxCell id="-oK8NXgzQvyokhCKbwOf-31" value="" style="endArrow=classic;html=1;rounded=0;fontSize=8;" parent="1" edge="1">
          <mxGeometry width="50" height="50" relative="1" as="geometry">
            <mxPoint x="337.75" y="363" as="sourcePoint" />
            <mxPoint x="571.25" y="363" as="targetPoint" />
          </mxGeometry>
        </mxCell>
        <mxCell id="-oK8NXgzQvyokhCKbwOf-32" value="调用NBU Cloud Host查询接口" style="edgeLabel;html=1;align=center;verticalAlign=middle;resizable=0;points=[];fontSize=8;" parent="-oK8NXgzQvyokhCKbwOf-31" vertex="1" connectable="0">
          <mxGeometry x="0.1299" y="-1" relative="1" as="geometry">
            <mxPoint x="-15" y="-3" as="offset" />
          </mxGeometry>
        </mxCell>
        <mxCell id="-oK8NXgzQvyokhCKbwOf-36" value="HomeShield" style="shape=umlLifeline;perimeter=lifelinePerimeter;whiteSpace=wrap;html=1;container=0;dropTarget=0;collapsible=0;recursiveResize=0;outlineConnect=0;portConstraint=eastwest;newEdgeStyle={&quot;edgeStyle&quot;:&quot;elbowEdgeStyle&quot;,&quot;elbow&quot;:&quot;vertical&quot;,&quot;curved&quot;:0,&quot;rounded&quot;:0};fontSize=8;" parent="1" vertex="1">
          <mxGeometry x="700" y="39" width="100" height="501" as="geometry" />
        </mxCell>
        <mxCell id="-oK8NXgzQvyokhCKbwOf-37" value="" style="html=1;points=[];perimeter=orthogonalPerimeter;outlineConnect=0;targetShapes=umlLifeline;portConstraint=eastwest;newEdgeStyle={&quot;edgeStyle&quot;:&quot;elbowEdgeStyle&quot;,&quot;elbow&quot;:&quot;vertical&quot;,&quot;curved&quot;:0,&quot;rounded&quot;:0};fontSize=8;" parent="-oK8NXgzQvyokhCKbwOf-36" vertex="1">
          <mxGeometry x="45" y="428" width="10" height="23" as="geometry" />
        </mxCell>
        <mxCell id="aM9ryv3xv72pqoxQDRHE-7" value="HomeShield请求" style="html=1;verticalAlign=bottom;endArrow=open;edgeStyle=elbowEdgeStyle;elbow=vertical;curved=0;rounded=0;endFill=0;fontSize=8;" parent="1" target="-oK8NXgzQvyokhCKbwOf-14" edge="1">
          <mxGeometry x="0.0017" relative="1" as="geometry">
            <mxPoint x="90" y="110" as="sourcePoint" />
            <Array as="points" />
            <mxPoint as="offset" />
            <mxPoint x="326" y="133" as="targetPoint" />
          </mxGeometry>
        </mxCell>
        <mxCell id="-oK8NXgzQvyokhCKbwOf-48" value="服务请求转发至HomeShield" style="html=1;verticalAlign=bottom;endArrow=block;edgeStyle=elbowEdgeStyle;elbow=vertical;curved=0;rounded=0;fontSize=8;" parent="1" edge="1">
          <mxGeometry relative="1" as="geometry">
            <mxPoint x="335" y="480" as="sourcePoint" />
            <Array as="points" />
            <mxPoint as="offset" />
            <mxPoint x="745" y="480" as="targetPoint" />
          </mxGeometry>
        </mxCell>
        <mxCell id="-oK8NXgzQvyokhCKbwOf-49" value="" style="html=1;verticalAlign=bottom;endArrow=open;dashed=1;endSize=8;edgeStyle=elbowEdgeStyle;elbow=vertical;curved=0;rounded=0;fontSize=8;" parent="1" edge="1">
          <mxGeometry x="-0.5086" y="129" relative="1" as="geometry">
            <mxPoint x="335" y="492" as="targetPoint" />
            <Array as="points">
              <mxPoint x="435" y="492" />
            </Array>
            <mxPoint x="745" y="492" as="sourcePoint" />
            <mxPoint as="offset" />
          </mxGeometry>
        </mxCell>
        <mxCell id="-oK8NXgzQvyokhCKbwOf-50" value="返回HomeShield执行状态" style="edgeLabel;html=1;align=center;verticalAlign=middle;resizable=0;points=[];fontSize=8;" parent="-oK8NXgzQvyokhCKbwOf-49" vertex="1" connectable="0">
          <mxGeometry x="0.1385" y="2" relative="1" as="geometry">
            <mxPoint x="15" y="-3" as="offset" />
          </mxGeometry>
        </mxCell>
        <mxCell id="geQivs8DNayLq6vlZBqh-19" value="返回HomeShield执行状态" style="edgeLabel;html=1;align=center;verticalAlign=middle;resizable=0;points=[];fontSize=8;" parent="-oK8NXgzQvyokhCKbwOf-49" vertex="1" connectable="0">
          <mxGeometry x="0.1385" y="2" relative="1" as="geometry">
            <mxPoint x="15" y="-3" as="offset" />
          </mxGeometry>
        </mxCell>
        <mxCell id="-oK8NXgzQvyokhCKbwOf-51" value="" style="html=1;verticalAlign=bottom;endArrow=open;dashed=1;endSize=8;edgeStyle=elbowEdgeStyle;elbow=vertical;curved=0;rounded=0;fontSize=8;" parent="1" edge="1">
          <mxGeometry x="-0.5086" y="129" relative="1" as="geometry">
            <mxPoint x="95" y="499" as="targetPoint" />
            <Array as="points">
              <mxPoint x="200" y="499" />
            </Array>
            <mxPoint x="325" y="498.9999999999999" as="sourcePoint" />
            <mxPoint as="offset" />
          </mxGeometry>
        </mxCell>
        <mxCell id="-oK8NXgzQvyokhCKbwOf-52" value="返回HomeShield执行状态" style="edgeLabel;html=1;align=center;verticalAlign=middle;resizable=0;points=[];fontSize=8;" parent="-oK8NXgzQvyokhCKbwOf-51" vertex="1" connectable="0">
          <mxGeometry x="0.1385" y="2" relative="1" as="geometry">
            <mxPoint x="15" y="-3" as="offset" />
          </mxGeometry>
        </mxCell>
        <mxCell id="geQivs8DNayLq6vlZBqh-20" value="返回HomeShield执行状态" style="edgeLabel;html=1;align=center;verticalAlign=middle;resizable=0;points=[];fontSize=8;" parent="-oK8NXgzQvyokhCKbwOf-51" vertex="1" connectable="0">
          <mxGeometry x="0.1385" y="2" relative="1" as="geometry">
            <mxPoint x="15" y="-3" as="offset" />
          </mxGeometry>
        </mxCell>
        <mxCell id="-oK8NXgzQvyokhCKbwOf-46" value="更新Host缓存" style="edgeLabel;html=1;align=center;verticalAlign=middle;resizable=0;points=[];fontSize=8;" parent="1" vertex="1" connectable="0">
          <mxGeometry x="380.0046153846155" y="400" as="geometry" />
        </mxCell>
        <mxCell id="geQivs8DNayLq6vlZBqh-4" value="" style="endArrow=classic;html=1;rounded=0;edgeStyle=orthogonalEdgeStyle;fontSize=8;" parent="1" edge="1">
          <mxGeometry x="-0.0411" y="60" width="50" height="50" relative="1" as="geometry">
            <mxPoint x="330" y="335" as="sourcePoint" />
            <mxPoint x="337" y="355" as="targetPoint" />
            <Array as="points">
              <mxPoint x="360" y="335" />
              <mxPoint x="360" y="355" />
            </Array>
            <mxPoint as="offset" />
          </mxGeometry>
        </mxCell>
        <mxCell id="geQivs8DNayLq6vlZBqh-9" value="使用ServiceId查询HomeShield Host 信息" style="edgeLabel;html=1;align=center;verticalAlign=middle;resizable=0;points=[];" parent="geQivs8DNayLq6vlZBqh-4" vertex="1" connectable="0">
          <mxGeometry x="-0.0346" y="-1" relative="1" as="geometry">
            <mxPoint x="91" y="3" as="offset" />
          </mxGeometry>
        </mxCell>
        <mxCell id="geQivs8DNayLq6vlZBqh-7" value="Host 缓存未命中" style="shape=umlFrame;whiteSpace=wrap;html=1;pointerEvents=0;width=100;height=20;align=left;" parent="1" vertex="1">
          <mxGeometry x="60" y="320" width="720" height="120" as="geometry" />
        </mxCell>
        <mxCell id="geQivs8DNayLq6vlZBqh-21" value="Network 适配分区部署调用&amp;nbsp;HomeShield&amp;nbsp;" style="shape=umlFrame;whiteSpace=wrap;html=1;pointerEvents=0;width=250;height=30;" parent="1" vertex="1">
          <mxGeometry x="10" y="-30" width="850" height="580" as="geometry" />
        </mxCell>
        <mxCell id="H4ywytqqjmW8hvlybOJk-1" value="" style="html=1;points=[];perimeter=orthogonalPerimeter;outlineConnect=0;targetShapes=umlLifeline;portConstraint=eastwest;newEdgeStyle={&quot;edgeStyle&quot;:&quot;elbowEdgeStyle&quot;,&quot;elbow&quot;:&quot;vertical&quot;,&quot;curved&quot;:0,&quot;rounded&quot;:0};fontSize=8;" parent="1" vertex="1">
          <mxGeometry x="325" y="282" width="10" height="30" as="geometry" />
        </mxCell>
        <mxCell id="H4ywytqqjmW8hvlybOJk-2" value="" style="html=1;verticalAlign=bottom;endArrow=block;edgeStyle=orthogonalEdgeStyle;elbow=vertical;rounded=0;fontSize=8;" parent="1" edge="1">
          <mxGeometry x="0.5289" y="20" relative="1" as="geometry">
            <mxPoint x="330" y="270" as="sourcePoint" />
            <Array as="points">
              <mxPoint x="360" y="270" />
              <mxPoint x="360" y="290" />
            </Array>
            <mxPoint x="335" y="290" as="targetPoint" />
            <mxPoint as="offset" />
          </mxGeometry>
        </mxCell>
        <mxCell id="H4ywytqqjmW8hvlybOJk-3" value="&lt;font style=&quot;font-size: 11px;&quot;&gt;查询HomeShield Host Redis缓存&lt;/font&gt;" style="edgeLabel;html=1;align=center;verticalAlign=middle;resizable=0;points=[];fontSize=8;" parent="H4ywytqqjmW8hvlybOJk-2" vertex="1" connectable="0">
          <mxGeometry x="-0.1488" y="-2" relative="1" as="geometry">
            <mxPoint x="62" y="8" as="offset" />
          </mxGeometry>
        </mxCell>
        <mxCell id="H4ywytqqjmW8hvlybOJk-5" value="Region Code 缓存未命中" style="shape=umlFrame;whiteSpace=wrap;html=1;pointerEvents=0;width=140;height=23;align=left;" parent="1" vertex="1">
          <mxGeometry x="60" y="160" width="720" height="100" as="geometry" />
        </mxCell>
        <mxCell id="H4ywytqqjmW8hvlybOJk-8" value="" style="html=1;points=[];perimeter=orthogonalPerimeter;outlineConnect=0;targetShapes=umlLifeline;portConstraint=eastwest;newEdgeStyle={&quot;edgeStyle&quot;:&quot;elbowEdgeStyle&quot;,&quot;elbow&quot;:&quot;vertical&quot;,&quot;curved&quot;:0,&quot;rounded&quot;:0};fontSize=8;" parent="1" vertex="1">
          <mxGeometry x="325" y="179" width="10" height="71" as="geometry" />
        </mxCell>
        <mxCell id="H4ywytqqjmW8hvlybOJk-9" value="" style="endArrow=classic;html=1;rounded=0;edgeStyle=orthogonalEdgeStyle;fontSize=8;" parent="1" edge="1">
          <mxGeometry x="-0.0411" y="60" width="50" height="50" relative="1" as="geometry">
            <mxPoint x="330" y="165" as="sourcePoint" />
            <mxPoint x="334" y="185" as="targetPoint" />
            <Array as="points">
              <mxPoint x="360" y="165" />
              <mxPoint x="360" y="185" />
            </Array>
            <mxPoint as="offset" />
          </mxGeometry>
        </mxCell>
        <mxCell id="H4ywytqqjmW8hvlybOJk-10" value="使用deviceId查询Region Code" style="edgeLabel;html=1;align=center;verticalAlign=middle;resizable=0;points=[];" parent="H4ywytqqjmW8hvlybOJk-9" vertex="1" connectable="0">
          <mxGeometry x="-0.0346" y="-1" relative="1" as="geometry">
            <mxPoint x="78" y="2" as="offset" />
          </mxGeometry>
        </mxCell>
        <mxCell id="H4ywytqqjmW8hvlybOJk-17" value="" style="endArrow=classic;html=1;rounded=0;edgeStyle=orthogonalEdgeStyle;fontSize=8;" parent="1" edge="1">
          <mxGeometry width="50" height="50" relative="1" as="geometry">
            <mxPoint x="335" y="223" as="sourcePoint" />
            <mxPoint x="335" y="243" as="targetPoint" />
            <Array as="points">
              <mxPoint x="369" y="223" />
              <mxPoint x="369" y="243" />
            </Array>
          </mxGeometry>
        </mxCell>
        <mxCell id="H4ywytqqjmW8hvlybOJk-18" value="更新Region Code缓存" style="edgeLabel;html=1;align=center;verticalAlign=middle;resizable=0;points=[];fontSize=8;" parent="1" vertex="1" connectable="0">
          <mxGeometry x="410.0046153846155" y="240" as="geometry" />
        </mxCell>
        <mxCell id="4FKTXKOVnA7IXkgK-BEj-1" value="TAUC Network" style="shape=umlFrame;whiteSpace=wrap;html=1;pointerEvents=0;width=100;height=17;align=left;dashed=1;" vertex="1" parent="1">
          <mxGeometry x="30" y="13" width="420" height="77" as="geometry" />
        </mxCell>
      </root>
    </mxGraphModel>
  </diagram>
</mxfile>
